HIERARCHY
ROOT Hips
{
	OFFSET 0.000000 0.000000 0.000000
	CHANNELS 6 Xposition Yposition Zposition Xrotation Yrotation Zrotation
	JOINT LeftUpLeg_virtual
	{
		OFFSET 0.000000 0.000000 0.000000
		CHANNELS 3 Xrotation Yrotation Zrotation
		JOINT LeftUpLeg
		{
			OFFSET 11.394100 -6.187798 -0.413800
			CHANNELS 3 Xrotation Yrotation Zrotation
			JOINT LeftLeg
			{
				OFFSET 0.430247 -32.302673 3.732800
				CHANNELS 3 Xrotation Yrotation Zrotation
				JOINT LeftFoot
				{
					OFFSET -0.430247 -48.264931 -6.423300
					CHANNELS 3 Xrotation Yrotation Zrotation
					JOINT LeftToeBase
					{
						OFFSET 4.230900 -16.068199 23.438400
						CHANNELS 3 Xrotation Yrotation Zrotation
						JOINT LeftToe_End
						{
							OFFSET 4.510700 0.695400 19.974600
							CHANNELS 3 Xrotation Yrotation Zrotation
							End Site
							{
								OFFSET 0 0 0
							}
						}
					}
				}
			}
		}
	}
	JOINT RightUpLeg_virtual
	{
		OFFSET 0.000000 0.000000 0.000000
		CHANNELS 3 Xrotation Yrotation Zrotation
		JOINT RightUpLeg
		{
			OFFSET -11.333700 -6.187798 -0.413800
			CHANNELS 3 Xrotation Yrotation Zrotation
			JOINT RightLeg
			{
				OFFSET -0.430392 -32.302628 3.733000
				CHANNELS 3 Xrotation Yrotation Zrotation
				JOINT RightFoot
				{
					OFFSET 0.430392 -48.264973 -6.423500
					CHANNELS 3 Xrotation Yrotation Zrotation
					JOINT RightToeBase
					{
						OFFSET -4.230900 -16.068199 23.438400
						CHANNELS 3 Xrotation Yrotation Zrotation
						JOINT RightToe_End
						{
							OFFSET -4.510700 0.695400 19.974600
							CHANNELS 3 Xrotation Yrotation Zrotation
							End Site
							{
								OFFSET 0 0 0
							}
						}
					}
				}
			}
		}
	}
	JOINT Spine_virtual
	{
		OFFSET 0.000000 0.000000 0.000000
		CHANNELS 3 Xrotation Yrotation Zrotation
		JOINT Spine
		{
			OFFSET -0.002400 12.777504 0.315300
			CHANNELS 3 Xrotation Yrotation Zrotation
			JOINT Spine1
			{
				OFFSET -0.002067 5.816869 0.032633
				CHANNELS 3 Xrotation Yrotation Zrotation
				JOINT Spine1_split
				{
					OFFSET -0.002067 5.816869 0.032633
					CHANNELS 3 Xrotation Yrotation Zrotation
					JOINT Spine2
					{
						OFFSET -0.002067 5.816869 0.032633
						CHANNELS 3 Xrotation Yrotation Zrotation
						JOINT Neck_virtual
						{
							OFFSET 0.000000 0.000000 0.000000
							CHANNELS 3 Xrotation Yrotation Zrotation
							JOINT Neck
							{
								OFFSET -0.003700 21.199493 -0.826900
								CHANNELS 3 Xrotation Yrotation Zrotation
								JOINT Head
								{
									OFFSET 0.000000 20.442200 4.834800
									CHANNELS 3 Xrotation Yrotation Zrotation
									JOINT HeadTop_End
									{
										OFFSET 0.000000 34.668396 4.968400
										CHANNELS 3 Xrotation Yrotation Zrotation
										End Site
										{
											OFFSET 0 0 0
										}
									}
								}
							}
						}
						JOINT LeftShoulder_virtual
						{
							OFFSET 0.000000 0.000000 0.000000
							CHANNELS 3 Xrotation Yrotation Zrotation
							JOINT LeftShoulder
							{
								OFFSET 3.288150 8.794197 -1.372250
								CHANNELS 3 Xrotation Yrotation Zrotation
								JOINT LeftShoulder_split
								{
									OFFSET 3.288150 8.794197 -1.372250
									CHANNELS 3 Xrotation Yrotation Zrotation
									JOINT LeftArm
									{
										OFFSET 11.953299 -2.279007 -0.146200
										CHANNELS 3 Xrotation Yrotation Zrotation
										JOINT LeftForeArm
										{
											OFFSET 18.448900 0.000000 0.000000
											CHANNELS 3 Xrotation Yrotation Zrotation
											JOINT LeftHand
											{
												OFFSET 29.527798 0.000000 0.000000
												CHANNELS 3 Xrotation Yrotation Zrotation
												End Site
												{
													OFFSET 0 0 0
												}
											}
										}
									}
								}
							}
						}
						JOINT RightShoulder_virtual
						{
							OFFSET 0.000000 0.000000 0.000000
							CHANNELS 3 Xrotation Yrotation Zrotation
							JOINT RightShoulder
							{
								OFFSET -3.249400 8.794197 -1.372250
								CHANNELS 3 Xrotation Yrotation Zrotation
								JOINT RightShoulder_split
								{
									OFFSET -3.249400 8.794197 -1.372250
									CHANNELS 3 Xrotation Yrotation Zrotation
									JOINT RightArm
									{
										OFFSET -11.953299 -2.279007 -0.146200
										CHANNELS 3 Xrotation Yrotation Zrotation
										JOINT RightForeArm
										{
											OFFSET -18.448900 0.000000 0.000000
											CHANNELS 3 Xrotation Yrotation Zrotation
											JOINT RightHand
											{
												OFFSET -29.527802 0.000000 0.000000
												CHANNELS 3 Xrotation Yrotation Zrotation
												End Site
												{
													OFFSET 0 0 0
												}
											}
										}
									}
								}
							}
						}
					}
				}
			}
		}
	}
}
MOTION
Frames: 5
Frame Time: 0.03333333
2.626489 95.270035 1.245121 0.000000 0.000000 0.000000 18.411844 -85.669301 20.221374 -25.887694 31.009452 26.516309 21.644666 -7.943866 1.364628 -2.812926 1.618992 -15.085743 0.947369 -0.300973 -0.411657 0.000000 0.000000 0.000000 7.931695 -84.996650 10.677081 -25.048498 -10.734593 -22.479336 12.913438 2.788868 -6.255920 3.355799 8.049786 19.299415 3.309071 0.252414 0.910076 0.000000 0.000000 0.000000 7.722340 -81.368009 9.867548 6.798203 -3.693624 -2.714783 1.877445 -7.896455 -0.447789 0.499888 0.240440 0.221620 0.000000 0.000000 0.000000 1.983858 -8.382104 -0.889460 -8.219531 6.098423 6.959976 91.107470 78.011279 -95.041836 0.000000 0.000000 0.000000 3.345368 -8.953970 -0.194393 5.134117 -1.178559 10.909135 -3.918764 -4.411599 3.026532 -35.494154 11.533136 -3.048171 -3.951143 -11.093106 0.453256 0.000000 0.000000 0.000000 2.573992 -8.651544 -0.795044 -0.145072 1.038617 -21.394133 0.690277 1.669322 7.645461 -49.606773 42.074846 44.744679 179.170151 37.256298 -177.940430 0.000000 0.000000 0.000000 
2.534152 95.267090 1.245731 0.000000 0.000000 0.000000 17.440644 -85.572203 19.309413 -25.744026 30.997601 26.429475 21.594393 -8.036704 1.351681 -2.846144 1.652593 -15.092865 0.935724 -0.299032 -0.419263 0.000000 0.000000 0.000000 7.216070 -84.899538 10.032651 -24.850279 -10.651639 -22.532992 12.946227 2.594399 -6.293395 3.199331 8.004837 19.391926 3.305399 0.248895 0.904789 0.000000 0.000000 0.000000 7.452781 -81.254184 9.654174 6.780909 -3.793512 -2.781170 1.869649 -7.988683 -0.431837 0.499582 0.242036 0.217732 0.000000 0.000000 0.000000 1.989256 -8.475330 -0.878295 -8.240798 6.170113 7.178069 93.786728 77.943988 -97.519569 0.000000 0.000000 0.000000 3.366413 -9.048294 -0.168391 5.045546 -0.956483 10.928642 -3.948136 -4.413556 3.008364 -35.454563 11.375512 -3.274810 -3.961021 -11.111073 0.447942 0.000000 0.000000 0.000000 2.591266 -8.747222 -0.787309 -0.054131 1.083510 -21.316588 0.677714 1.675556 7.708764 -49.107032 41.621069 44.513402 179.190573 36.893103 -177.929665 0.000000 0.000000 0.000000 
2.442201 95.264412 1.251549 0.000000 0.000000 0.000000 16.448545 -85.479271 18.384786 -25.612876 30.985201 26.349468 21.558831 -8.121829 1.341620 -2.869531 1.676771 -15.101615 0.927400 -0.296030 -0.427950 0.000000 0.000000 0.000000 6.488182 -84.799640 9.380998 -24.643889 -10.569045 -22.582171 12.973408 2.403246 -6.334745 3.046662 7.955934 19.473257 3.298675 0.246931 0.900503 0.000000 0.000000 0.000000 7.137682 -81.146786 9.405597 6.774743 -3.891988 -2.860615 1.859866 -8.080579 -0.409716 0.500765 0.241849 0.215219 0.000000 0.000000 0.000000 1.994140 -8.567356 -0.861795 -8.263037 6.250747 7.395950 96.446799 77.839745 -99.961068 0.000000 0.000000 0.000000 3.390500 -9.142774 -0.135687 4.955740 -0.742912 10.951873 -3.969803 -4.411642 2.994368 -35.425145 11.230357 -3.500558 -3.977611 -11.115287 0.434287 0.000000 0.000000 0.000000 2.608234 -8.842353 -0.774088 0.043427 1.129839 -21.231047 0.664279 1.690521 7.767968 -48.573939 41.152522 44.255255 179.218686 36.538606 -177.917016 0.000000 0.000000 0.000000 
2.351349 95.259827 1.260372 0.000000 0.000000 0.000000 15.460741 -85.390192 17.469438 -25.495547 30.972128 26.278697 21.537135 -8.198731 1.333034 -2.891314 1.695287 -15.109753 0.926087 -0.291891 -0.439443 0.000000 0.000000 0.000000 5.760289 -84.694851 8.731463 -24.432565 -10.486196 -22.629322 13.000151 2.219352 -6.379446 2.902738 7.907992 19.551478 3.283027 0.246457 0.897748 0.000000 0.000000 0.000000 6.785742 -81.047025 9.128300 6.781571 -3.988665 -2.951263 1.848193 -8.170257 -0.381218 0.501305 0.242756 0.214813 0.000000 0.000000 0.000000 1.998283 -8.655731 -0.839979 -8.283107 6.339108 7.604721 99.027320 77.703053 -102.316821 0.000000 0.000000 0.000000 3.416993 -9.235468 -0.096602 4.868253 -0.548948 10.979668 -3.978659 -4.405168 2.982460 -35.406772 11.108529 -3.713964 -4.000286 -11.113277 0.412597 0.000000 0.000000 0.000000 2.623944 -8.934901 -0.754781 0.147305 1.181317 -21.136406 0.647757 1.709135 7.818585 -48.016486 40.685664 43.968120 179.258287 36.204920 -177.904981 0.000000 0.000000 0.000000 
2.261540 95.251007 1.270893 0.000000 0.000000 0.000000 14.501337 -85.303346 16.583749 -25.390786 30.956627 26.217912 21.528282 -8.270394 1.324733 -2.917542 1.710513 -15.119076 0.929005 -0.286625 -0.452969 0.000000 0.000000 0.000000 5.047368 -84.587125 8.097048 -24.224859 -10.402765 -22.676571 13.033352 2.045894 -6.425564 2.768799 7.866514 19.632639 3.263561 0.247692 0.896501 0.000000 0.000000 0.000000 6.409094 -80.956429 8.831744 6.801415 -4.083931 -3.050920 1.834440 -8.255891 -0.346359 0.501329 0.241212 0.218884 0.000000 0.000000 0.000000 2.001358 -8.738894 -0.812452 -8.298956 6.433653 7.796310 101.475007 77.539955 -104.543716 0.000000 0.000000 0.000000 3.443661 -9.324010 -0.051981 4.787345 -0.385083 11.011615 -3.973550 -4.399069 2.973608 -35.398627 11.019266 -3.905086 -4.024922 -11.114439 0.386785 0.000000 0.000000 0.000000 2.638156 -9.022566 -0.728676 0.255784 1.238912 -21.033083 0.629046 1.729444 7.857753 -47.442429 40.233769 43.652781 179.311044 35.901216 -177.895009 0.000000 0.000000 0.000000 
